<svg height="512" viewBox="0 0 64 64" width="512" xmlns="http://www.w3.org/2000/svg"><g id="Flat"><g id="Color"><g><path d="m43.375 26a2.375 2.375 0 0 1 -2.375-2.375v-9.625h-18v9.625a2.375 2.375 0 0 1 -2.375 2.375 10 10 0 0 0 -9.54 13l5.595 17.8a6 6 0 0 0 5.72 4.2h19.2a6 6 0 0 0 5.724-4.2l5.591-17.8a10 10 0 0 0 -9.54-13z" fill="#d0d8da"/><path d="m40.529 53a20.924 20.924 0 0 1 -19.962-14.651l-1.167-3.719a5.87 5.87 0 0 1 5.6-7.63 4 4 0 0 0 4-4v-9h-6v9.625a2.375 2.375 0 0 1 -2.375 2.375 10 10 0 0 0 -9.54 13l5.595 17.8a6 6 0 0 0 5.72 4.2h19.2a6 6 0 0 0 5.724-4.2l1.19-3.8z" fill="#93999a"/><path d="m48.888 33.632a1.992 1.992 0 0 0 -3.271-2.072 2.97 2.97 0 0 0 -4.872-.519 1.992 1.992 0 0 0 -1.745-1.041 2.993 2.993 0 0 0 -4.129-2.776 3.983 3.983 0 0 0 -6.5 1.12 2.959 2.959 0 0 0 -4.19 1.674c-.059 0-.117-.018-.178-.018a2 2 0 0 0 -2 2 2.023 2.023 0 0 0 .055.45h-.11a2.99 2.99 0 0 0 -5.194-1.425 1.964 1.964 0 0 0 -1.639 2.607 5.931 5.931 0 0 0 -.215 4.168l5.6 17.8a1.993 1.993 0 0 0 1.9 1.4h19.2a1.991 1.991 0 0 0 1.9-1.4l5.6-17.8a5.931 5.931 0 0 0 -.212-4.168z" fill="#7ab92d"/><path d="m40.529 53a20.924 20.924 0 0 1 -19.962-14.651l-1.167-3.719a5.812 5.812 0 0 1 .419-4.505 2.942 2.942 0 0 0 -.819-.125 2.977 2.977 0 0 0 -2.249 1.025 1.964 1.964 0 0 0 -1.639 2.607 5.931 5.931 0 0 0 -.212 4.168l5.6 17.8a1.993 1.993 0 0 0 1.9 1.4h19.2a1.991 1.991 0 0 0 1.9-1.4l.817-2.6z" fill="#436d10"/><g fill="#a1d51c"><circle cx="35" cy="20" r="2"/><circle cx="29" cy="26" r="2"/><circle cx="43" cy="37" r="2"/><circle cx="21" cy="37" r="2"/></g><path d="m27 9h10a0 0 0 0 1 0 0v7a2 2 0 0 1 -2 2h-6a2 2 0 0 1 -2-2v-7a0 0 0 0 1 0 0z" fill="#fcbc04"/><rect fill="#f9e109" height="6" rx="2" width="18" x="23" y="3"/><path d="m40 43a2.987 2.987 0 0 0 -1.5-2.584 6.927 6.927 0 0 0 -12.89-.059 2.971 2.971 0 0 0 -.61 4.864v1.779a3 3 0 0 0 3 3v2a2 2 0 0 0 2 2h4a2 2 0 0 0 2-2v-2a3 3 0 0 0 3-3v-1.779a2.978 2.978 0 0 0 1-2.221z" fill="#d0d8da"/><path d="m30 45v-8.684a7.156 7.156 0 0 0 -4.39 4.041 2.971 2.971 0 0 0 -.61 4.864v1.779a3 3 0 0 0 3 3v2a2 2 0 0 0 2 2h4a2 2 0 0 0 2-2v-1a6 6 0 0 1 -6-6z" fill="#93999a"/><circle cx="27" cy="43" fill="#656b76" r="3"/><circle cx="37" cy="43" fill="#656b76" r="3"/><path d="m26 3h-1a2 2 0 0 0 -2 2v2a2 2 0 0 0 2 2h14a2 2 0 0 0 2-2v-1h-12a3 3 0 0 1 -3-3z" fill="#fcbc04"/><path d="m28 50v2a2 2 0 0 0 2 2h4a2 2 0 0 0 1.936-1.522 20.927 20.927 0 0 1 -10.936-6.399v.921a3 3 0 0 0 3 3z" fill="#656b76"/><circle cx="37" cy="43" fill="#464a51" r="1.5"/><circle cx="27" cy="43" fill="#464a51" r="1.5"/><path d="m31 54v-2a1 1 0 0 1 2 0v2z" fill="#464a51"/><path d="m33 49h-2a1 1 0 0 1 0-2h2a1 1 0 0 1 0 2z" fill="#656b76"/><circle cx="36" cy="32" fill="#a1d51c" r="1"/><circle cx="28" cy="33" fill="#a1d51c" r="1"/><circle cx="43" cy="47" fill="#a1d51c" r="1"/><path d="m31 49h.537a5.977 5.977 0 0 1 -1.113-1.8.978.978 0 0 0 -.424.8 1 1 0 0 0 1 1z" fill="#464a51"/><path d="m32.87 51.534a.99.99 0 0 0 -.87-.534.94.94 0 0 0 -.238.048c.366.169.732.338 1.108.486z" fill="#656b76"/><path d="m27 26a2 2 0 0 0 .046.42 3.984 3.984 0 0 0 1.808-2.405 1.993 1.993 0 0 0 -1.854 1.985z" fill="#7ab92d"/><path d="m19 37a1.993 1.993 0 0 0 1.793 1.979c-.074-.211-.159-.416-.226-.63l-.892-2.837a1.987 1.987 0 0 0 -.675 1.488z" fill="#7ab92d"/><path d="m27 14v2a2 2 0 0 0 2 2h6a2 2 0 0 0 2-2v-2z" fill="#e59730"/><path d="m27 9h10v2h-10z" fill="#e59730"/></g></g></g></svg>