<svg id="Capa_1" enable-background="new 0 0 512 512" height="512" viewBox="0 0 512 512" width="512" xmlns="http://www.w3.org/2000/svg"><g><g><g><path d="m255 0c-61.21 0-111 49.79-111 111v49c0 8.28 6.72 15 15 15h192c8.28 0 15-6.72 15-15v-49c0-61.21-49.79-111-111-111z" fill="#fdb500"/></g></g><g><path d="m366 111v49c0 8.28-6.72 15-15 15h-96v-175c61.21 0 111 49.79 111 111z" fill="#ff9100"/></g><g><circle cx="223" cy="96" fill="#54489b" r="16"/></g><g><circle cx="287" cy="96" fill="#463d83" r="16"/></g><g><path d="m471 0c-8.284 0-15 6.716-15 15v25.5l-17 12.75-17-12.75v-25.5c0-8.284-6.716-15-15-15s-15 6.716-15 15v33c0 4.722 2.223 9.167 6 12l26 19.5v88.5c0 8.284 6.716 15 15 15s15-6.716 15-15v-88.5l26-19.5c3.777-2.833 6-7.278 6-12v-33c0-8.284-6.716-15-15-15z" fill="#463d83"/></g><g><path d="m103 0c-8.284 0-15 6.716-15 15v25.5l-17 12.75-17-12.75v-25.5c0-8.284-6.716-15-15-15s-15 6.716-15 15v33c0 4.722 2.223 9.167 6 12l26 19.5v88.5c0 8.284 6.716 15 15 15s15-6.716 15-15v-88.5l26-19.5c3.777-2.833 6-7.278 6-12v-33c0-8.284-6.716-15-15-15z" fill="#54489b"/></g><g><path d="m361 145h-212c-15.864 0-29.828 8.262-37.844 20.701-10.761-8.565-24.366-13.701-39.156-13.701-34.738 0-63 28.262-63 63 0 48.717 53.248 78.966 95 54.236v115.764c0 8.28 6.72 15 15 15h272c8.28 0 15-6.72 15-15v-195c0-24.81-20.19-45-45-45z" fill="#fed330"/></g><g><path d="m440 152c-15.399 0-29.519 5.562-40.475 14.771-7.891-13.037-22.208-21.771-38.525-21.771h-106v255h136c8.28 0 15-6.72 15-15v-117.004c9.816 6.32 21.482 10.004 34 10.004 34.738 0 63-28.262 63-63s-28.262-63-63-63z" fill="#fdb500"/></g><g><path d="m191 240h128v80h-128z" fill="#e0f1fb"/></g><g><path d="m255 240h64v80h-64z" fill="#b2dcfd"/></g><g><g><path d="m319 225h-128c-8.28 0-15 6.72-15 15v80c0 8.28 6.72 15 15 15h128c8.28 0 15-6.72 15-15v-80c0-8.28-6.72-15-15-15zm-15 80h-98v-50h98z" fill="#fdb500"/></g></g><g><path d="m334 240v80c0 8.28-6.72 15-15 15h-64v-30h49v-50h-49v-30h64c8.28 0 15 6.72 15 15z" fill="#ff9100"/></g><g><path d="m455 441c0 30.932-25.079 56-56 56h-288c-30.93 0-56-25.07-56-56 0-30.932 25.079-56 56-56h288c30.93 0 56 25.07 56 56z" fill="#463d83"/></g><g><path d="m455 441c0 30.932-25.079 56-56 56h-144v-112h144c30.93 0 56 25.07 56 56z" fill="#282e66"/></g><g><g><path d="m399 370h-288c-39.15 0-71 31.85-71 71s31.85 71 71 71h288c39.15 0 71-31.85 71-71s-31.85-71-71-71zm0 112h-288c-22.61 0-41-18.39-41-41s18.39-41 41-41h288c22.61 0 41 18.39 41 41s-18.39 41-41 41z" fill="#54489b"/></g></g><g><path d="m470 441c0 39.15-31.85 71-71 71h-144v-30h144c22.61 0 41-18.39 41-41s-18.39-41-41-41h-144v-30h144c39.15 0 71 31.85 71 71z" fill="#463d83"/></g><g><circle cx="111" cy="441" fill="#463d83" r="56"/></g><g><circle cx="399" cy="441" fill="#282e66" r="56"/></g><g><g><path d="m111 512c-39.149 0-71-31.851-71-71s31.851-71 71-71 71 31.851 71 71-31.851 71-71 71zm0-112c-22.607 0-41 18.393-41 41s18.393 41 41 41 41-18.393 41-41-18.393-41-41-41z" fill="#54489b"/></g></g><g><g><path d="m399 512c-39.149 0-71-31.851-71-71s31.851-71 71-71 71 31.851 71 71-31.851 71-71 71zm0-112c-22.607 0-41 18.393-41 41s18.393 41 41 41 41-18.393 41-41-18.393-41-41-41z" fill="#463d83"/></g></g><g><circle cx="111" cy="441" fill="#54489b" r="16"/></g><g><circle cx="399" cy="441" fill="#463d83" r="16"/></g><g><g><path d="m440 152c-15.4 0-29.53 5.55-40.48 14.76 4.11 6.79 6.48 14.75 6.48 23.24v78.01c9.81 6.33 21.49 9.99 34 9.99 34.74 0 63-28.26 63-63s-28.26-63-63-63z" fill="#ff9100"/></g></g><g><g><path d="m72 152c-34.74 0-63 28.26-63 63s28.26 63 63 63c11.67 0 22.62-3.19 32-8.75v-79.25c0-8.95 2.63-17.3 7.15-24.32-10.76-8.57-24.37-13.68-39.15-13.68z" fill="#fdb500"/></g></g></g></svg>