<svg id="Filled" height="512" viewBox="0 0 512 512" width="512" xmlns="http://www.w3.org/2000/svg"><path d="m464 253.18v-205.18a16 16 0 0 0 -16-16h-16a16 16 0 0 0 -16 16v48l-34 27.2a16 16 0 0 0 -6 12.494v208.306z" fill="#e74444"/><path d="m416 96v80h-40v-40.31a16 16 0 0 1 6-12.49z" fill="#e0e2e5"/><path d="m376 192v32h40v-32z" fill="#e0e2e5"/><circle cx="56" cy="80" fill="#d8c8b9" r="24"/><circle cx="168" cy="80" fill="#d8c8b9" r="24"/><path d="m104 224s-24 84.813-64 64 8-96 32-128h88s40 16 64 64z" fill="#efdece"/><path d="m176 128a64 64 0 1 1 -64-64 63.892 63.892 0 0 1 64 64z" fill="#fae8d8"/><path d="m151.59 178.29a64.016 64.016 0 0 1 -79.18 0 40 40 0 0 1 79.18 0z" fill="#d8c8b9"/><circle cx="464" cy="120" fill="#7e8488" r="24"/><circle cx="296" cy="224" fill="#3a98e4" r="88"/><path d="m358.225 161.775a88 88 0 0 0 -124.45 0l62.225 62.225z" fill="#f3db70"/><path d="m227.549 302.225a88 88 0 0 0 124.451 0l-62.225-62.225z" fill="#f3db70"/><path d="m104 224v256h368v-256zm240 80a16 16 0 0 1 -16 16h-80a16 16 0 0 1 -16-16v-16h112z" fill="#ab6647"/><path d="m104 408h368v16h-368z" fill="#93573d"/><path d="m104 344h368v16h-368z" fill="#93573d"/><path d="m486.627 142.627a31.98 31.98 0 0 0 -14.627-53.597v-41.03a24.027 24.027 0 0 0 -24-24h-16a24.027 24.027 0 0 0 -24 24v44.155l-30.993 24.794a23.882 23.882 0 0 0 -9.007 18.741v24.887a95.934 95.934 0 0 0 -160.2 25.535 146.933 146.933 0 0 0 -31.176-26.277 72.135 72.135 0 0 0 4.821-50.805 31.988 31.988 0 1 0 -40.058-46.73 71.734 71.734 0 0 0 -58.753-.01 31.991 31.991 0 1 0 -40.079 46.742 72.011 72.011 0 0 0 11.731 62.063c-18.581 27.427-43.5 71.281-36.379 100.637a34.564 34.564 0 0 0 18.4 23.369 35.047 35.047 0 0 0 16.248 4.171 32.606 32.606 0 0 0 13-2.743c12.795-5.529 22.945-18.695 30.445-32.2v215.671a8 8 0 0 0 8 8h368a8 8 0 0 0 8-8v-256a8 8 0 0 0 -8-8v-65.03a31.791 31.791 0 0 0 14.627-8.343zm-11.313-11.313a15.993 15.993 0 1 1 0-22.628 16.02 16.02 0 0 1 0 22.628zm-11.314 100.686v48h-352v-48zm-352 128h352v48h-352zm0-16v-48h112v8a24.028 24.028 0 0 0 24 24h80a24.028 24.028 0 0 0 24-24v-8h112v48zm128-48h96v8a8.009 8.009 0 0 1 -8 8h-80a8.009 8.009 0 0 1 -8-8zm36.687-80h-60.287a79.634 79.634 0 0 1 17.686-42.6zm81.226-42.6a79.634 79.634 0 0 1 17.687 42.6h-60.287zm33.751 42.6a95.311 95.311 0 0 0 -5.155-24h21.491v24zm-4.664-86.557 21-16.8v63.357h-24v-40.31a7.962 7.962 0 0 1 3-6.247zm-40.4 32.644-50.6 50.6-50.6-50.6a79.82 79.82 0 0 1 101.2 0zm-178.6-98.087a16 16 0 0 1 7.51 30.124 72.509 72.509 0 0 0 -20.31-23.688 16.1 16.1 0 0 1 12.8-6.436zm0 64a55.653 55.653 0 0 1 -12.647 35.456 47.955 47.955 0 0 0 -86.706 0 56 56 0 1 1 99.353-35.456zm-63.928 25.016a7.992 7.992 0 0 0 15.856 0 32.229 32.229 0 0 1 22.739 21.853 56.064 56.064 0 0 1 -61.334 0 32.228 32.228 0 0 1 22.739-21.853zm-64.072-73.016a16 16 0 0 1 28.818-9.575 72.5 72.5 0 0 0 -20.327 23.7 16.063 16.063 0 0 1 -8.491-14.125zm19.2 201.84c-5.115 2.205-10.043 1.908-15.51-.937a18.7 18.7 0 0 1 -10.236-12.946c-4.145-17.09 7.782-48.395 32.1-84.944q.938.792 1.9 1.558a72.017 72.017 0 0 0 89.086 0 72.758 72.758 0 0 0 11.45-11.271 131.848 131.848 0 0 1 34.078 30.855 95.545 95.545 0 0 0 -1.732 11.845h-96.336a8 8 0 0 0 -7.691 5.819h-.009c-3.96 13.953-18.351 51.937-37.1 60.021zm52.8 190.16v-48h352v48zm312-256v-168a8.009 8.009 0 0 1 8-8h16a8.009 8.009 0 0 1 8 8v41.03a31.98 31.98 0 0 0 0 61.94v65.03z"/><circle cx="88" cy="120" r="8"/><circle cx="136" cy="120" r="8"/></svg>